#Comment line ignore any data following # character 
#Hierarchical Translation and Rotation (.htr) file 
[Header]	
#Header keywords are followed by a single value 
FileType HTR		#Single word string
DataType HTRS		#Translation followed by rotation and scale data
FileVersion 1		#integer
NumSegments 84		#integer
NumFrames 2		#integer
DataFrameRate 30		#integer, data frame rate in this file
EulerRotationOrder ZYX
CalibrationUnits mm
RotationUnits Degrees
GlobalAxisofGravity Y
BoneLengthAxis Y
ScaleFactor 1.00
[SegmentNames&Hierarchy]
#CHILD	PARENT
MASTER GLOBAL
root MASTER
chest root
L_mid_tent01 root
R_mid_tent01 root
spine01 root
Bip01_Neck chest
L_humerus chest
R_humerus chest
weapon_bone chest
Bip01_Head Bip01_Neck
eye_left_bone Bip01_Head
eye_right_bone Bip01_Head
L_forearm L_humerus
L_front_hand L_forearm
L_weapon_bone L_forearm
L_front_hand01_01 L_front_hand
L_front_hand02_01 L_front_hand
L_front_hand03_01 L_front_hand
L_front_hand01_02 L_front_hand01_01
L_front_hand02_02 L_front_hand02_01
L_front_hand03_02 L_front_hand03_01
R_forearm R_humerus
R_front_hand R_forearm
R_weapon_bone R_forearm
R_front_hand01_01 R_front_hand
R_front_hand02_01 R_front_hand
R_front_hand03_01 R_front_hand
R_front_hand01_02 R_front_hand01_01
R_front_hand02_02 R_front_hand02_01
R_front_hand03_02 R_front_hand03_01
null_rope01_connect L_mid_tent01
Rope1_Seg01 null_rope01_connect
Rope1_Seg02 Rope1_Seg01
Rope1_Seg03 Rope1_Seg02
Rope1_Seg04 Rope1_Seg03
Rope1_Seg05 Rope1_Seg04
Rope1_Seg06 Rope1_Seg05
Rope1_Seg07 Rope1_Seg06
Rope1_Seg09 Rope1_Seg07
L_mid_hand01 Rope1_Seg09
L_mid_hand02 Rope1_Seg09
L_mid_hand03 Rope1_Seg09
null_rope02_connect R_mid_tent01
Rope2_Seg01 null_rope02_connect
Rope2_Seg02 Rope2_Seg01
Rope2_Seg03 Rope2_Seg02
Rope2_Seg04 Rope2_Seg03
Rope2_Seg05 Rope2_Seg04
Rope2_Seg06 Rope2_Seg05
Rope2_Seg07 Rope2_Seg06
Rope2_Seg09 Rope2_Seg07
R_mid_hand01 Rope2_Seg09
R_mid_hand02 Rope2_Seg09
R_mid_hand03 Rope2_Seg09
spine02 spine01
spine03 spine02
pelvis spine03
null_rope03_connect pelvis
null_rope04_connect pelvis
Rope3_Seg01 null_rope03_connect
Rope3_Seg02 Rope3_Seg01
Rope3_Seg03 Rope3_Seg02
Rope3_Seg04 Rope3_Seg03
Rope3_Seg05 Rope3_Seg04
Rope3_Seg06 Rope3_Seg05
Rope3_Seg07 Rope3_Seg06
Rope3_Seg08 Rope3_Seg07
Rope3_Seg09 Rope3_Seg08
R_rear_hand01 Rope3_Seg09
R_rear_hand02 Rope3_Seg09
R_rear_hand03 Rope3_Seg09
Rope4_Seg01 null_rope04_connect
Rope4_Seg02 Rope4_Seg01
Rope4_Seg03 Rope4_Seg02
Rope4_Seg04 Rope4_Seg03
Rope4_Seg05 Rope4_Seg04
Rope4_Seg06 Rope4_Seg05
Rope4_Seg07 Rope4_Seg06
Rope4_Seg08 Rope4_Seg07
Rope4_Seg09 Rope4_Seg08
L_rear_hand01 Rope4_Seg09
L_rear_hand02 Rope4_Seg09
L_rear_hand03 Rope4_Seg09
[BasePosition]
#SegmentName Tx, Ty, Tz, Rx, Ry, Rz, BoneLength
MASTER 0.000000 0.000000 0.000000 -90.000000 0.000000 0.000000 10.000000 
root 0.000000 0.000000 0.000000 0.000000 0.000000 0.000000 10.000000 
chest 0.000000 0.000000 0.000000 0.000000 0.000000 0.000000 10.000000 
L_mid_tent01 0.000000 0.000000 0.000000 0.000000 0.000000 0.000000 10.000000 
R_mid_tent01 0.000000 0.000000 0.000000 0.000000 0.000000 0.000000 10.000000 
spine01 0.000000 0.000000 0.000000 0.000000 0.000000 0.000000 10.000000 
Bip01_Neck 0.000000 0.000000 0.000000 0.000000 0.000000 0.000000 10.000000 
L_humerus 0.000000 0.000000 0.000000 0.000000 0.000000 0.000000 10.000000 
R_humerus 0.000000 0.000000 0.000000 0.000000 0.000000 0.000000 10.000000 
weapon_bone 0.000000 0.000000 0.000000 0.000000 0.000000 0.000000 10.000000 
Bip01_Head 0.000000 0.000000 0.000000 0.000000 0.000000 0.000000 10.000000 
eye_left_bone 0.000000 0.000000 0.000000 0.000000 0.000000 0.000000 10.000000 
eye_right_bone 0.000000 0.000000 0.000000 0.000000 0.000000 0.000000 10.000000 
L_forearm 0.000000 0.000000 0.000000 0.000000 0.000000 0.000000 10.000000 
L_front_hand 0.000000 0.000000 0.000000 0.000000 0.000000 0.000000 10.000000 
L_weapon_bone 0.000000 0.000000 0.000000 0.000000 0.000000 0.000000 10.000000 
L_front_hand01_01 0.000000 0.000000 0.000000 0.000000 0.000000 0.000000 10.000000 
L_front_hand02_01 0.000000 0.000000 0.000000 0.000000 0.000000 0.000000 10.000000 
L_front_hand03_01 0.000000 0.000000 0.000000 0.000000 0.000000 0.000000 10.000000 
L_front_hand01_02 0.000000 0.000000 0.000000 0.000000 0.000000 0.000000 10.000000 
L_front_hand02_02 0.000000 0.000000 0.000000 0.000000 0.000000 0.000000 10.000000 
L_front_hand03_02 0.000000 0.000000 0.000000 0.000000 0.000000 0.000000 10.000000 
R_forearm 0.000000 0.000000 0.000000 0.000000 0.000000 0.000000 10.000000 
R_front_hand 0.000000 0.000000 0.000000 0.000000 0.000000 0.000000 10.000000 
R_weapon_bone 0.000000 0.000000 0.000000 0.000000 0.000000 0.000000 10.000000 
R_front_hand01_01 0.000000 0.000000 0.000000 0.000000 0.000000 0.000000 10.000000 
R_front_hand02_01 0.000000 0.000000 0.000000 0.000000 0.000000 0.000000 10.000000 
R_front_hand03_01 0.000000 0.000000 0.000000 0.000000 0.000000 0.000000 10.000000 
R_front_hand01_02 0.000000 0.000000 0.000000 0.000000 0.000000 0.000000 10.000000 
R_front_hand02_02 0.000000 0.000000 0.000000 0.000000 0.000000 0.000000 10.000000 
R_front_hand03_02 0.000000 0.000000 0.000000 0.000000 0.000000 0.000000 10.000000 
null_rope01_connect 0.000000 0.000000 0.000000 0.000000 0.000000 0.000000 10.000000 
Rope1_Seg01 0.000000 0.000000 0.000000 0.000000 0.000000 0.000000 10.000000 
Rope1_Seg02 0.000000 0.000000 0.000000 0.000000 0.000000 0.000000 10.000000 
Rope1_Seg03 0.000000 0.000000 0.000000 0.000000 0.000000 0.000000 10.000000 
Rope1_Seg04 0.000000 0.000000 0.000000 0.000000 0.000000 0.000000 10.000000 
Rope1_Seg05 0.000000 0.000000 0.000000 0.000000 0.000000 0.000000 10.000000 
Rope1_Seg06 0.000000 0.000000 0.000000 0.000000 0.000000 0.000000 10.000000 
Rope1_Seg07 0.000000 0.000000 0.000000 0.000000 0.000000 0.000000 10.000000 
Rope1_Seg09 0.000000 0.000000 0.000000 0.000000 0.000000 0.000000 10.000000 
L_mid_hand01 0.000000 0.000000 0.000000 0.000000 0.000000 0.000000 10.000000 
L_mid_hand02 0.000000 0.000000 0.000000 0.000000 0.000000 0.000000 10.000000 
L_mid_hand03 0.000000 0.000000 0.000000 0.000000 0.000000 0.000000 10.000000 
null_rope02_connect 0.000000 0.000000 0.000000 0.000000 0.000000 0.000000 10.000000 
Rope2_Seg01 0.000000 0.000000 0.000000 0.000000 0.000000 0.000000 10.000000 
Rope2_Seg02 0.000000 0.000000 0.000000 0.000000 0.000000 0.000000 10.000000 
Rope2_Seg03 0.000000 0.000000 0.000000 0.000000 0.000000 0.000000 10.000000 
Rope2_Seg04 0.000000 0.000000 0.000000 0.000000 0.000000 0.000000 10.000000 
Rope2_Seg05 0.000000 0.000000 0.000000 0.000000 0.000000 0.000000 10.000000 
Rope2_Seg06 0.000000 0.000000 0.000000 0.000000 0.000000 0.000000 10.000000 
Rope2_Seg07 0.000000 0.000000 0.000000 0.000000 0.000000 0.000000 10.000000 
Rope2_Seg09 0.000000 0.000000 0.000000 0.000000 0.000000 0.000000 10.000000 
R_mid_hand01 0.000000 0.000000 0.000000 0.000000 0.000000 0.000000 10.000000 
R_mid_hand02 0.000000 0.000000 0.000000 0.000000 0.000000 0.000000 10.000000 
R_mid_hand03 0.000000 0.000000 0.000000 0.000000 0.000000 0.000000 10.000000 
spine02 0.000000 0.000000 0.000000 0.000000 0.000000 0.000000 10.000000 
spine03 0.000000 0.000000 0.000000 0.000000 0.000000 0.000000 10.000000 
pelvis 0.000000 0.000000 0.000000 0.000000 0.000000 0.000000 10.000000 
null_rope03_connect 0.000000 0.000000 0.000000 0.000000 0.000000 0.000000 10.000000 
null_rope04_connect 0.000000 0.000000 0.000000 0.000000 0.000000 0.000000 10.000000 
Rope3_Seg01 0.000000 0.000000 0.000000 0.000000 0.000000 0.000000 10.000000 
Rope3_Seg02 0.000000 0.000000 0.000000 0.000000 0.000000 0.000000 10.000000 
Rope3_Seg03 0.000000 0.000000 0.000000 0.000000 0.000000 0.000000 10.000000 
Rope3_Seg04 0.000000 0.000000 0.000000 0.000000 0.000000 0.000000 10.000000 
Rope3_Seg05 0.000000 0.000000 0.000000 0.000000 0.000000 0.000000 10.000000 
Rope3_Seg06 0.000000 0.000000 0.000000 0.000000 0.000000 0.000000 10.000000 
Rope3_Seg07 0.000000 0.000000 0.000000 0.000000 0.000000 0.000000 10.000000 
Rope3_Seg08 0.000000 0.000000 0.000000 0.000000 0.000000 0.000000 10.000000 
Rope3_Seg09 0.000000 0.000000 0.000000 0.000000 0.000000 0.000000 10.000000 
R_rear_hand01 0.000000 0.000000 0.000000 0.000000 0.000000 0.000000 10.000000 
R_rear_hand02 0.000000 0.000000 0.000000 0.000000 0.000000 0.000000 10.000000 
R_rear_hand03 0.000000 0.000000 0.000000 0.000000 0.000000 0.000000 10.000000 
Rope4_Seg01 0.000000 0.000000 0.000000 0.000000 0.000000 0.000000 10.000000 
Rope4_Seg02 0.000000 0.000000 0.000000 0.000000 0.000000 0.000000 10.000000 
Rope4_Seg03 0.000000 0.000000 0.000000 0.000000 0.000000 0.000000 10.000000 
Rope4_Seg04 0.000000 0.000000 0.000000 0.000000 0.000000 0.000000 10.000000 
Rope4_Seg05 0.000000 0.000000 0.000000 0.000000 0.000000 0.000000 10.000000 
Rope4_Seg06 0.000000 0.000000 0.000000 0.000000 0.000000 0.000000 10.000000 
Rope4_Seg07 0.000000 0.000000 0.000000 0.000000 0.000000 0.000000 10.000000 
Rope4_Seg08 0.000000 0.000000 0.000000 0.000000 0.000000 0.000000 10.000000 
Rope4_Seg09 0.000000 0.000000 0.000000 0.000000 0.000000 0.000000 10.000000 
L_rear_hand01 0.000000 0.000000 0.000000 0.000000 0.000000 0.000000 10.000000 
L_rear_hand02 0.000000 0.000000 0.000000 0.000000 0.000000 0.000000 10.000000 
L_rear_hand03 0.000000 0.000000 0.000000 0.000000 0.000000 0.000000 10.000000 
#Beginning of Data. Separated by tabs
#Fr	Tx	Ty	Tz	Rx	Ry	Rz	SF
[MASTER]
36 1494.913452 -9035.043945 315.079926 0.000000 -0.002347 -90.000000 9163.298828
37 1214.563232 -9374.700195 255.976944 0.000000 -0.002347 -90.000000 9456.515625
[root]
36 -72.615051 11.449420 1287.468018 -102.401840 -19.229191 160.206207 1289.565063
37 -69.350792 13.133710 1358.312134 -99.802147 -18.777992 157.901901 1360.144775
[chest]
36 -84.512650 -34.090519 0.000000 -5.606449 -0.727961 -176.216904 91.129311
37 -84.512650 -34.090519 0.000000 1.853695 -1.406176 -175.199936 91.129311
[L_mid_tent01]
36 27.300077 22.177568 -249.918259 -7.473487 -4.366263 -2.346905 252.381210
37 27.300091 22.177568 -249.918259 -9.449304 -6.531473 2.376286 252.381210
[R_mid_tent01]
36 23.228794 24.509907 226.238495 174.398163 -3.215303 33.173527 228.744751
37 23.228794 24.509907 226.238495 174.269470 5.205307 20.888292 228.744751
[spine01]
36 -0.361383 -0.195265 0.000000 0.001687 0.001632 1.890996 0.410763
37 -0.361383 -0.195265 0.000000 0.001687 0.001632 1.890996 0.410763
[Bip01_Neck]
36 165.484543 71.581718 0.000119 176.643677 -1.657967 43.431911 180.302734
37 165.484543 71.581718 0.000119 176.643677 -1.657967 43.431911 180.302734
[L_humerus]
36 -13.983130 -135.272980 -120.471481 101.444870 46.790562 -174.505829 181.680161
37 -13.983130 -135.272980 -120.471481 96.748878 48.549770 -178.973053 181.680161
[R_humerus]
36 -13.983309 -135.273102 125.287651 -172.966370 -64.879791 -91.914536 184.909012
37 -13.983309 -135.273102 125.287651 -171.806290 -68.570526 -93.177628 184.909012
[weapon_bone]
36 235.964890 -300.705902 0.000000 0.000000 -89.951546 -128.212341 382.234833
37 235.964890 -300.705902 0.000000 0.000000 -89.951546 -128.212341 382.234833
[Bip01_Head]
36 213.431412 185.751541 11.309846 3.975443 6.152567 -43.832958 283.168701
37 213.433975 185.744583 11.400345 10.694968 6.150455 -43.832539 283.169708
[eye_left_bone]
36 -24.626970 125.451866 -64.772606 0.000000 -90.000000 -99.840431 143.318359
37 -24.626970 125.451866 -64.772606 0.000000 -90.000000 -99.840431 143.318359
[eye_right_bone]
36 -24.626970 125.451866 64.327362 0.000000 -89.965736 80.156380 143.117676
37 -24.626970 125.451866 64.327362 0.000000 -89.965736 80.156380 143.117676
[L_forearm]
36 322.776093 0.000000 -0.000119 0.000119 -0.002344 -95.807457 322.776093
37 322.776093 0.000000 -0.000119 0.000119 -0.002344 -95.807457 322.776093
[L_front_hand]
36 241.149185 -0.042021 -3.300071 -178.667953 -1.835447 -27.422342 241.171753
37 241.149185 -0.042021 -3.300071 -178.667953 -1.835447 -27.422350 241.171753
[L_weapon_bone]
36 156.183838 0.000000 0.000000 0.000014 0.000007 0.000001 156.183838
37 156.183838 0.000000 0.000000 0.000014 0.000007 0.000001 156.183838
[L_front_hand01_01]
36 86.095154 20.947098 -0.655860 -0.366594 -0.477154 75.385574 88.609184
37 86.095154 20.947098 -0.655860 -0.366594 -0.477154 75.385574 88.609184
[L_front_hand02_01]
36 86.935165 -11.437475 24.513514 154.399796 -59.883835 -61.369587 91.046425
37 86.935165 -11.437475 24.513514 154.399811 -59.883835 -61.369606 91.046425
[L_front_hand03_01]
36 86.637497 -14.123976 -20.424902 -153.913879 58.118130 -62.702892 90.126129
37 86.637497 -14.123976 -20.424902 -153.913849 58.118130 -62.702866 90.126129
[L_front_hand01_02]
36 71.020905 -0.000179 0.000030 0.000334 -0.002323 -106.374191 71.020905
37 71.020905 -0.000179 0.000030 0.000334 -0.002323 -106.374893 71.020905
[L_front_hand02_02]
36 71.020927 -0.000119 0.000060 0.000334 -0.002323 -106.374191 71.020927
37 71.020927 -0.000119 0.000060 0.000334 -0.002323 -106.374893 71.020927
[L_front_hand03_02]
36 71.020905 -0.000060 0.000060 0.000334 -0.002323 -106.374191 71.020905
37 71.020905 -0.000060 0.000060 0.000334 -0.002323 -106.374893 71.020905
[R_forearm]
36 322.776428 -0.000060 0.000030 0.209504 0.012586 -94.339050 322.776428
37 322.776428 -0.000060 0.000030 0.209504 0.012586 -94.339050 322.776428
[R_front_hand]
36 238.847015 -0.006795 2.210259 -2.635298 -10.645461 -26.312506 238.857239
37 238.847015 -0.006795 2.210259 -2.635298 -10.645461 -26.312506 238.857239
[R_weapon_bone]
36 155.664093 0.002503 -0.000030 0.003487 0.001180 -90.988930 155.664078
37 155.664093 0.002503 -0.000030 0.003487 0.001180 -90.988930 155.664078
[R_front_hand01_01]
36 87.624611 14.231146 22.918642 -154.633499 -59.950619 61.746044 91.683487
37 87.624611 14.231146 22.918642 -154.633484 -59.950607 61.746037 91.683487
[R_front_hand02_01]
36 89.356956 14.367283 -19.491137 154.602676 58.302849 63.744400 92.579636
37 89.356956 14.367283 -19.491137 154.602661 58.302856 63.744389 92.579636
[R_front_hand03_01]
36 87.286232 -22.307278 -0.143439 0.162155 -0.423168 -75.767921 90.091743
37 87.286232 -22.307278 -0.143439 0.162155 -0.423168 -75.767906 90.091743
[R_front_hand01_02]
36 71.020905 0.000060 0.000119 0.002323 -0.000334 106.381714 71.020905
37 71.020905 0.000060 0.000119 0.002323 -0.000334 106.381714 71.020905
[R_front_hand02_02]
36 71.020844 -0.000030 -0.000119 0.002323 -0.000334 106.381714 71.020836
37 71.020844 -0.000030 -0.000119 0.002323 -0.000334 106.381714 71.020836
[R_front_hand03_02]
36 71.020905 0.000000 0.000030 0.002323 -0.000334 106.381714 71.020905
37 71.020905 0.000000 0.000030 0.002323 -0.000334 106.381714 71.020905
[null_rope01_connect]
36 328.732483 0.000000 -0.000238 133.802536 59.984341 61.639828 328.732483
37 328.732483 0.000000 -0.000238 134.981308 60.782360 57.355034 328.732483
[Rope1_Seg01]
36 0.000031 0.000777 0.000000 25.774324 -47.427639 83.878838 0.000777
37 0.000032 0.000799 0.000000 29.787687 -26.721869 76.185318 0.000800
[Rope1_Seg02]
36 139.999863 -0.000179 0.000000 4.198193 3.062761 -19.115803 139.999863
37 139.999863 -0.000179 0.000000 4.855700 0.743002 -9.149425 139.999863
[Rope1_Seg03]
36 139.999924 0.000060 -0.000060 8.272253 1.831685 -17.134684 139.999924
37 139.999924 0.000060 -0.000060 9.617942 -2.217681 -10.260081 139.999924
[Rope1_Seg04]
36 139.999924 -0.000060 -0.000119 1.922538 4.282842 -7.515133 139.999924
37 139.999924 -0.000060 -0.000119 2.251658 3.545234 -6.568974 139.999924
[Rope1_Seg05]
36 139.999832 0.000119 -0.000060 1.339594 1.292141 -2.887039 139.999832
37 139.999832 0.000119 -0.000060 -3.077804 3.928656 -1.752448 139.999832
[Rope1_Seg06]
36 139.999954 0.000119 -0.000060 1.080323 0.621714 -1.758261 139.999954
37 139.999954 0.000119 -0.000060 -0.463446 1.406368 -1.220789 139.999954
[Rope1_Seg07]
36 139.999985 0.000060 0.000000 0.769500 0.375315 -1.138321 139.999985
37 139.999985 0.000060 0.000000 -0.315927 0.899706 -0.762484 139.999985
[Rope1_Seg09]
36 121.602913 0.000119 -0.000089 -89.793175 -1.359789 0.847147 121.602913
37 121.602913 0.000119 -0.000089 -89.793175 -1.359789 0.847147 121.602913
[L_mid_hand01]
36 103.859421 1.038730 8.195221 130.544373 -67.584534 -38.866943 104.187431
37 103.859421 1.038730 8.195221 130.544373 -67.584534 -38.866943 104.187431
[L_mid_hand02]
36 105.572853 -4.139662 -10.864139 -168.923172 43.409309 -73.498886 106.211075
37 105.572853 -4.139662 -10.864139 -168.923172 43.409309 -73.498886 106.211075
[L_mid_hand03]
36 104.641464 17.579376 -3.913581 -6.012627 17.808174 74.893669 106.179977
37 104.641464 17.579376 -3.913581 -6.012627 17.808174 74.893669 106.179977
[null_rope02_connect]
36 328.732849 0.000179 -0.000119 -48.421989 -64.886978 -24.291935 328.732849
37 328.732849 0.000179 -0.000119 -61.899162 -56.323112 -22.943188 328.732849
[Rope2_Seg01]
36 -0.000052 -0.000069 0.000000 95.435287 1.819730 56.795731 0.000087
37 -0.000051 -0.000066 0.000000 95.857819 4.523882 55.630611 0.000084
[Rope2_Seg02]
36 139.999741 -0.000060 -0.000119 0.040273 -3.797861 1.074146 139.999756
37 139.999741 -0.000060 -0.000119 -0.082482 -2.074805 1.368416 139.999756
[Rope2_Seg03]
36 140.000107 0.000030 0.000000 -0.014286 -5.475508 1.368946 140.000107
37 140.000107 0.000030 0.000000 -0.092417 -2.935258 1.933571 140.000107
[Rope2_Seg04]
36 139.999802 0.000000 -0.000060 -0.460274 -11.182455 1.875538 139.999802
37 139.999802 0.000000 -0.000060 -0.195050 -6.973347 3.308985 139.999802
[Rope2_Seg05]
36 139.999985 -0.000060 0.000119 0.823222 3.313577 3.246978 139.999985
37 139.999985 -0.000060 0.000119 0.005526 -6.677472 5.710826 139.999985
[Rope2_Seg06]
36 139.999893 -0.000030 -0.000119 0.418842 4.245875 1.506915 139.999893
37 139.999893 -0.000030 -0.000119 0.789143 6.736358 1.593921 139.999893
[Rope2_Seg07]
36 139.999893 0.000060 -0.000060 0.079850 1.222720 0.838392 139.999893
37 139.999893 0.000060 -0.000060 0.177974 1.839883 1.122407 139.999893
[Rope2_Seg09]
36 121.338966 0.000089 -0.000060 33.793236 -1.359788 -0.847141 121.338966
37 121.338966 0.000089 -0.000060 33.793236 -1.359788 -0.847141 121.338966
[R_mid_hand01]
36 104.680779 11.144459 -10.335981 -16.212063 45.237240 70.462845 105.778534
37 104.680779 11.144459 -10.335981 -16.212063 45.237247 70.462852 105.778534
[R_mid_hand02]
36 104.070427 2.443552 8.231699 49.067371 -67.749794 39.286461 104.424065
37 104.070427 2.443552 8.231699 49.067368 -67.749771 39.286453 104.424065
[R_mid_hand03]
36 106.028137 -11.221827 -5.996406 -177.101105 15.551026 -76.585571 106.788818
37 106.028137 -11.221827 -5.996406 -177.101105 15.551026 -76.585571 106.788818
[spine02]
36 129.756927 0.001550 0.000119 -1.023899 -3.926965 6.770993 129.756927
37 129.756927 0.001550 0.000119 -1.023899 -3.926965 6.770993 129.756927
[spine03]
36 78.614204 0.087526 -4.898899 1.040681 4.146420 4.212376 78.766747
37 78.614212 0.087531 -4.898900 1.040681 4.146420 4.212376 78.766747
[pelvis]
36 169.435242 0.051022 0.000000 -47.628075 -0.188333 -10.721344 169.435257
37 169.435242 0.051022 0.000000 -44.980263 -0.191661 -10.720722 169.435257
[null_rope03_connect]
36 -1.257226 -2.466202 137.391083 153.485519 22.150618 69.020493 137.418976
37 -1.257226 -2.466202 137.391083 150.828445 26.084909 65.898804 137.418976
[null_rope04_connect]
36 -1.259640 -2.480268 -137.844437 153.485519 22.150618 69.020493 137.872513
37 -1.259640 -2.480268 -137.844437 150.828445 26.084909 65.898804 137.872513
[Rope3_Seg01]
36 0.000031 0.000777 0.000000 -134.596176 14.020795 84.004951 0.000777
37 0.000032 0.000799 0.000000 -131.823624 6.184870 81.076447 0.000800
[Rope3_Seg02]
36 139.999924 -0.000119 0.000060 2.223401 7.025387 2.923663 139.999924
37 139.999924 -0.000119 0.000060 2.689102 7.398505 1.469455 139.999924
[Rope3_Seg03]
36 139.999924 -0.000119 0.000119 2.750303 6.139862 1.006274 139.999924
37 139.999924 -0.000119 0.000119 2.482913 4.757738 -1.167640 139.999924
[Rope3_Seg04]
36 139.999924 0.000119 0.000000 6.047279 11.525797 4.814622 139.999924
37 139.999924 0.000119 0.000000 3.701882 7.950274 1.866153 139.999924
[Rope3_Seg05]
36 139.999924 -0.000238 0.000060 10.932440 14.109045 8.160541 139.999924
37 139.999924 -0.000238 0.000060 6.920612 12.206057 7.293572 139.999924
[Rope3_Seg06]
36 139.999893 -0.000119 -0.000060 7.392478 6.179389 2.019301 139.999893
37 139.999893 -0.000119 -0.000060 5.106732 6.133943 2.694996 139.999893
[Rope3_Seg07]
36 139.999771 0.000060 -0.000119 5.790780 3.762140 0.662708 139.999771
37 139.999771 0.000060 -0.000119 3.936197 3.617007 1.091465 139.999771
[Rope3_Seg08]
36 139.999985 -0.000060 0.000000 4.101567 2.232754 0.165773 139.999985
37 139.999985 -0.000060 0.000000 2.880711 2.210495 0.502584 139.999985
[Rope3_Seg09]
36 90.185997 -0.000179 -0.000060 89.793228 -1.359877 -0.847183 90.185997
37 90.185997 -0.000179 -0.000060 89.793228 -1.359877 -0.847183 90.185997
[R_rear_hand01]
36 103.366196 -6.073594 -10.757982 -177.714203 24.565960 -73.910950 104.101845
37 103.366196 -6.073594 -10.757982 -177.714203 24.565960 -73.910950 104.101845
[R_rear_hand02]
36 100.509819 12.039542 -7.992327 -12.874829 36.868488 72.167213 101.543350
37 100.509819 12.039542 -7.992327 -12.874829 36.868488 72.167213 101.543350
[R_rear_hand03]
36 101.539970 5.215704 5.435467 71.484581 -71.816612 21.513796 101.819031
37 101.539970 5.215704 5.435467 71.484581 -71.816628 21.513813 101.819031
[Rope4_Seg01]
36 0.000006 0.000791 -0.000153 45.542961 -17.637770 91.123131 0.000805
37 0.000006 0.000812 -0.000153 47.718048 -7.317548 87.581909 0.000826
[Rope4_Seg02]
36 139.999985 0.000060 0.000119 0.531423 -8.834749 -5.567492 139.999985
37 139.999985 0.000060 0.000119 0.302638 -7.837734 -3.668251 139.999985
[Rope4_Seg03]
36 139.999924 0.000000 -0.000238 0.793062 -12.679509 -4.342097 139.999924
37 139.999924 0.000000 -0.000238 0.588095 -10.978320 -2.946845 139.999924
[Rope4_Seg04]
36 139.999985 0.000000 0.000119 -0.209057 -11.796015 -8.272313 139.999985
37 139.999985 0.000000 0.000119 0.445048 -11.195312 -5.838758 139.999985
[Rope4_Seg05]
36 139.999802 -0.000060 -0.000119 -8.641456 4.178708 -13.135674 139.999802
37 139.999802 -0.000060 -0.000119 -4.012801 3.321715 -7.590785 139.999802
[Rope4_Seg06]
36 139.999924 0.000000 0.000060 -3.223260 2.231086 -4.897309 139.999924
37 139.999924 0.000000 0.000060 -1.222303 1.201395 -2.548779 139.999924
[Rope4_Seg07]
36 139.999802 0.000000 0.000000 -1.587663 0.894496 -2.691875 139.999802
37 139.999802 0.000000 0.000000 -0.531274 0.296750 -1.429078 139.999802
[Rope4_Seg08]
36 139.999924 0.000000 0.000119 -2.469472 0.566573 -1.563922 139.999924
37 139.999924 0.000000 0.000119 -1.849522 0.185925 -0.842227 139.999924
[Rope4_Seg09]
36 90.185791 0.000060 0.000060 -135.617828 2.228885 0.850567 90.185791
37 90.185791 0.000060 0.000060 -135.617828 2.228885 0.850567 90.185791
[L_rear_hand01]
36 101.696655 -8.392275 -7.654577 -12.874829 -36.868488 107.832764 102.329041
37 101.696655 -8.392275 -7.654577 -12.874829 -36.868488 107.832764 102.329041
[L_rear_hand02]
36 102.726799 -1.568258 5.773216 71.484581 71.816612 158.486160 102.900848
37 102.726799 -1.568258 5.773216 71.484581 71.816643 158.486160 102.900848
[L_rear_hand03]
36 104.552910 9.721220 -10.420293 -177.714203 -24.565960 -106.089035 105.519653
37 104.552910 9.721220 -10.420293 -177.714203 -24.565960 -106.089035 105.519653
